{"accessors" : [{"bufferView" : 0, "byteOffset" : 0, "componentType" : 5123, "count" : 76662, "type" : "SCALAR", "max" : [16461], "min" : [0]}, {"bufferView" : 1, "byteOffset" : 0, "componentType" : 5126, "count" : 16462, "type" : "VEC3", "max" : [1079.5263671875, 160.8737030029297, 219.2196044921875], "min" : [-1654.287109375, -160.8737030029297, -124.32849884033203], "name" : "POSITION"}, {"bufferView" : 1, "byteOffset" : 12, "componentType" : 5126, "count" : 16462, "type" : "VEC2", "max" : [0.9876999855041504, 0.9975000023841858], "min" : [0.0015999999595806003, 0.0070999860763549805], "name" : "TEXCOORD_0"}, {"bufferView" : 1, "byteOffset" : 20, "componentType" : 5126, "count" : 16462, "type" : "VEC3", "max" : [1.0000044107437134, 1.0000044107437134, 1.0000044107437134], "min" : [-1.0000044107437134, -1.0000044107437134, -1.0000044107437134], "name" : "NORMAL"}, {"bufferView" : 0, "byteOffset" : 153324, "componentType" : 5123, "count" : 21480, "type" : "SCALAR", "max" : [4249], "min" : [0]}, {"bufferView" : 2, "byteOffset" : 0, "componentType" : 5126, "count" : 4250, "type" : "VEC3", "max" : [384.74359130859375, -133.6591033935547, 145.17340087890625], "min" : [-966.5800170898438, -1560.1773681640625, -96.92240142822266], "name" : "POSITION"}, {"bufferView" : 2, "byteOffset" : 12, "componentType" : 5126, "count" : 4250, "type" : "VEC2", "max" : [0.9952999949455261, 0.9980000257492065], "min" : [0.01209999993443489, 0.014199972152709961], "name" : "TEXCOORD_0"}, {"bufferView" : 2, "byteOffset" : 20, "componentType" : 5126, "count" : 4250, "type" : "VEC3", "max" : [0.9978669285774231, 0.9998843669891357, 0.999898374080658], "min" : [-0.9988031387329102, -1.0000032186508179, -0.9993941187858582], "name" : "NORMAL"}, {"bufferView" : 0, "byteOffset" : 196284, "componentType" : 5123, "count" : 164694, "type" : "SCALAR", "max" : [32109], "min" : [0]}, {"bufferView" : 3, "byteOffset" : 0, "componentType" : 5126, "count" : 32110, "type" : "VEC3", "max" : [211.07150268554688, -173.23939514160156, 97.33460235595703], "min" : [-883.0313720703125, -1499.826416015625, -168.58389282226562], "name" : "POSITION"}, {"bufferView" : 3, "byteOffset" : 12, "componentType" : 5126, "count" : 32110, "type" : "VEC2", "max" : [0.9980999827384949, 0.9991999864578247], "min" : [0.002400000113993883, 0.003899991512298584], "name" : "TEXCOORD_0"}, {"bufferView" : 3, "byteOffset" : 20, "componentType" : 5126, "count" : 32110, "type" : "VEC3", "max" : [1.0000044107437134, 1.0000044107437134, 1.0000044107437134], "min" : [-1.0000044107437134, -1.0000044107437134, -1.0000044107437134], "name" : "NORMAL"}, {"bufferView" : 0, "byteOffset" : 525672, "componentType" : 5123, "count" : 30156, "type" : "SCALAR", "max" : [5650], "min" : [0]}, {"bufferView" : 4, "byteOffset" : 0, "componentType" : 5126, "count" : 5651, "type" : "VEC3", "max" : [-998.8651123046875, 597.2744750976562, 639.600830078125], "min" : [-1764.874267578125, -597.2744750976562, 98.31410217285156], "name" : "POSITION"}, {"bufferView" : 4, "byteOffset" : 12, "componentType" : 5126, "count" : 5651, "type" : "VEC2", "max" : [0.8101000189781189, 0.9950000047683716], "min" : [0.007000000216066837, 0.010200023651123047], "name" : "TEXCOORD_0"}, {"bufferView" : 4, "byteOffset" : 20, "componentType" : 5126, "count" : 5651, "type" : "VEC3", "max" : [0.9999942779541016, 1.0000038146972656, 1.0000015497207642], "min" : [-1.0000044107437134, -1.0000038146972656, -1.0000044107437134], "name" : "NORMAL"}, {"bufferView" : 0, "byteOffset" : 585984, "componentType" : 5123, "count" : 2340, "type" : "SCALAR", "max" : [1019], "min" : [0]}, {"bufferView" : 5, "byteOffset" : 0, "componentType" : 5126, "count" : 1020, "type" : "VEC3", "max" : [-95.59249877929688, -610.7946166992188, 90.97090148925781], "min" : [-722.4572143554688, -1486.3287353515625, 16.061199188232422], "name" : "POSITION"}, {"bufferView" : 5, "byteOffset" : 12, "componentType" : 5126, "count" : 1020, "type" : "VEC2", "max" : [0.9987999796867371, 0.9016000032424927], "min" : [0.002400000113993883, 0.0023999810218811035], "name" : "TEXCOORD_0"}, {"bufferView" : 5, "byteOffset" : 20, "componentType" : 5126, "count" : 1020, "type" : "VEC3", "max" : [0.5985264778137207, 0.833499014377594, 0.9921438097953796], "min" : [-0.6019056439399719, -0.8185254335403442, -0.9967529773712158], "name" : "NORMAL"}, {"bufferView" : 0, "byteOffset" : 590664, "componentType" : 5123, "count" : 164694, "type" : "SCALAR", "max" : [32109], "min" : [0]}, {"bufferView" : 6, "byteOffset" : 0, "componentType" : 5126, "count" : 32110, "type" : "VEC3", "max" : [211.07150268554688, 1499.826416015625, 97.33460235595703], "min" : [-883.0313720703125, 173.23939514160156, -168.58389282226562], "name" : "POSITION"}, {"bufferView" : 6, "byteOffset" : 12, "componentType" : 5126, "count" : 32110, "type" : "VEC2", "max" : [0.9980999827384949, 0.9991999864578247], "min" : [0.002400000113993883, 0.003899991512298584], "name" : "TEXCOORD_0"}, {"bufferView" : 6, "byteOffset" : 20, "componentType" : 5126, "count" : 32110, "type" : "VEC3", "max" : [1.0000044107437134, 1.0000044107437134, 1.0000044107437134], "min" : [-1.0000044107437134, -1.0000044107437134, -1.0000044107437134], "name" : "NORMAL"}, {"bufferView" : 0, "byteOffset" : 920052, "componentType" : 5123, "count" : 2340, "type" : "SCALAR", "max" : [1019], "min" : [0]}, {"bufferView" : 7, "byteOffset" : 0, "componentType" : 5126, "count" : 1020, "type" : "VEC3", "max" : [-95.59249877929688, 1486.3287353515625, 90.97090148925781], "min" : [-722.4572143554688, 610.7946166992188, 16.061199188232422], "name" : "POSITION"}, {"bufferView" : 7, "byteOffset" : 12, "componentType" : 5126, "count" : 1020, "type" : "VEC2", "max" : [0.9987999796867371, 0.9016000032424927], "min" : [0.002400000113993883, 0.0023999810218811035], "name" : "TEXCOORD_0"}, {"bufferView" : 7, "byteOffset" : 20, "componentType" : 5126, "count" : 1020, "type" : "VEC3", "max" : [0.5985264778137207, 0.8185254335403442, 0.9921438097953796], "min" : [-0.6019056439399719, -0.833499014377594, -0.9967529773712158], "name" : "NORMAL"}, {"bufferView" : 0, "byteOffset" : 924732, "componentType" : 5123, "count" : 21480, "type" : "SCALAR", "max" : [4249], "min" : [0]}, {"bufferView" : 8, "byteOffset" : 0, "componentType" : 5126, "count" : 4250, "type" : "VEC3", "max" : [384.74359130859375, 1560.1773681640625, 145.17340087890625], "min" : [-966.5800170898438, 133.6591033935547, -96.92240142822266], "name" : "POSITION"}, {"bufferView" : 8, "byteOffset" : 12, "componentType" : 5126, "count" : 4250, "type" : "VEC2", "max" : [0.9952999949455261, 0.9980000257492065], "min" : [0.01209999993443489, 0.014199972152709961], "name" : "TEXCOORD_0"}, {"bufferView" : 8, "byteOffset" : 20, "componentType" : 5126, "count" : 4250, "type" : "VEC3", "max" : [0.9978669285774231, 1.0000032186508179, 0.999898374080658], "min" : [-0.9988031387329102, -0.9998843669891357, -0.9993941187858582], "name" : "NORMAL"}, {"bufferView" : 0, "byteOffset" : 967692, "componentType" : 5123, "count" : 2040, "type" : "SCALAR", "max" : [391], "min" : [0]}, {"bufferView" : 9, "byteOffset" : 0, "componentType" : 5126, "count" : 392, "type" : "VEC3", "max" : [-1277.39208984375, 85.06099700927734, 134.6876983642578], "min" : [-1433.711181640625, -85.06099700927734, 75.36150360107422], "name" : "POSITION"}, {"bufferView" : 9, "byteOffset" : 12, "componentType" : 5126, "count" : 392, "type" : "VEC2", "max" : [0.7143999934196472, 0.9186000227928162], "min" : [0.4196999967098236, 0.7825999855995178], "name" : "TEXCOORD_0"}, {"bufferView" : 9, "byteOffset" : 20, "componentType" : 5126, "count" : 392, "type" : "VEC3", "max" : [0.9977930188179016, 0.9988580942153931, 0.9906921982765198], "min" : [-0.9887776374816895, -0.9988580942153931, -0.94315505027771], "name" : "NORMAL"}], "asset" : {"generator" : "Aspose.3D 24.6.0", "version" : "2.0"}, "buffers" : [{"uri" : "buffer.bin", "byteLength" : 4084292}], "bufferViews" : [{"buffer" : 0, "byteOffset" : 0, "byteLength" : 971772, "target" : 34963}, {"buffer" : 0, "byteOffset" : 971776, "byteLength" : 526784, "byteStride" : 32, "target" : 34962}, {"buffer" : 0, "byteOffset" : 1498564, "byteLength" : 136000, "byteStride" : 32, "target" : 34962}, {"buffer" : 0, "byteOffset" : 1634568, "byteLength" : 1027520, "byteStride" : 32, "target" : 34962}, {"buffer" : 0, "byteOffset" : 2662092, "byteLength" : 180832, "byteStride" : 32, "target" : 34962}, {"buffer" : 0, "byteOffset" : 2842928, "byteLength" : 32640, "byteStride" : 32, "target" : 34962}, {"buffer" : 0, "byteOffset" : 2875572, "byteLength" : 1027520, "byteStride" : 32, "target" : 34962}, {"buffer" : 0, "byteOffset" : 3903096, "byteLength" : 32640, "byteStride" : 32, "target" : 34962}, {"buffer" : 0, "byteOffset" : 3935740, "byteLength" : 136000, "byteStride" : 32, "target" : 34962}, {"buffer" : 0, "byteOffset" : 4071744, "byteLength" : 12544, "byteStride" : 32, "target" : 34962}], "meshes" : [{"primitives" : [{"attributes" : {"POSITION" : 1, "TEXCOORD_0" : 2, "NORMAL" : 3}, "indices" : 0, "mode" : 4}], "name" : ""}, {"primitives" : [{"attributes" : {"POSITION" : 5, "TEXCOORD_0" : 6, "NORMAL" : 7}, "indices" : 4, "mode" : 4}], "name" : ""}, {"primitives" : [{"attributes" : {"POSITION" : 9, "TEXCOORD_0" : 10, "NORMAL" : 11}, "indices" : 8, "mode" : 4}], "name" : ""}, {"primitives" : [{"attributes" : {"POSITION" : 13, "TEXCOORD_0" : 14, "NORMAL" : 15}, "indices" : 12, "mode" : 4}], "name" : ""}, {"primitives" : [{"attributes" : {"POSITION" : 17, "TEXCOORD_0" : 18, "NORMAL" : 19}, "indices" : 16, "mode" : 4}], "name" : ""}, {"primitives" : [{"attributes" : {"POSITION" : 21, "TEXCOORD_0" : 22, "NORMAL" : 23}, "indices" : 20, "mode" : 4}], "name" : ""}, {"primitives" : [{"attributes" : {"POSITION" : 25, "TEXCOORD_0" : 26, "NORMAL" : 27}, "indices" : 24, "mode" : 4}], "name" : ""}, {"primitives" : [{"attributes" : {"POSITION" : 29, "TEXCOORD_0" : 30, "NORMAL" : 31}, "indices" : 28, "mode" : 4}], "name" : ""}, {"primitives" : [{"attributes" : {"POSITION" : 33, "TEXCOORD_0" : 34, "NORMAL" : 35}, "indices" : 32, "mode" : 4}], "name" : ""}], "nodes" : [{"mesh" : 0, "name" : "11803_Airplane_body"}, {"mesh" : 1, "name" : "11803_Airplane_wing_R"}, {"mesh" : 2, "name" : "11803_Airplane_wing_details_R"}, {"mesh" : 3, "name" : "11803_Airplane_tail"}, {"mesh" : 4, "name" : "11803_Airplane_wing_holder_R"}, {"mesh" : 5, "name" : "11803_Airplane_wing_details_L"}, {"mesh" : 6, "name" : "11803_Airplane_wing_holder_L"}, {"mesh" : 7, "name" : "11803_Airplane_wing_L"}, {"mesh" : 8, "name" : "11803_Airplane_back_wing_holder"}], "scene" : 0, "scenes" : [{"nodes" : [0, 1, 2, 3, 4, 5, 6, 7, 8]}]}